<?xml version="1.0" encoding="UTF-8"?>
<svg xmlns="http://www.w3.org/2000/svg" viewBox="0 0 500 500">
  <defs>
    <style>
      .cls-1 {
        fill: none;
        stroke: #000;
        stroke-linecap: round;
        stroke-linejoin: round;
        stroke-width: 4px;
      }

      .cls-2 {
        fill: #e6e6e6;
      }

      .cls-3 {
        fill: #f2f2f2;
      }
    </style>
  </defs>
  <g id="Layer_2" data-name="Layer 2">
    <g>
      <path class="cls-3" d="M131.04,261.9c15.31-.39,30.62-.78,45.92-1.17,14.18-.36,28.39-.62,42.43-2.86,13.94-2.22,27.41-7,40.53-12.08s26.22-11.05,38.82-17.67c5.13-2.7.59-10.47-4.54-7.77-23.9,12.56-50.35,24.55-77.2,28.84-13.87,2.22-28.03,2.24-42.04,2.59-14.64.37-29.29.74-43.93,1.12-5.78.15-5.8,9.15,0,9h0Z"/>
      <path class="cls-3" d="M292.19,221.34c-12.79,6.36-26.48,10.39-39.86,15.29-13.25,4.85-25.81,11.11-38.36,17.52-12.18,6.23-25.29,11.78-36.36,19.91-9.96,7.31-17.06,17.1-20.65,28.94-1.68,5.56,7,7.93,8.68,2.39,3.71-12.27,11.91-21.15,22.74-27.69s23.47-12.4,35.23-18.39c11.83-6.02,23.76-11.46,36.29-15.86,12.45-4.37,24.99-8.46,36.84-14.35,5.19-2.58.63-10.34-4.54-7.77h0Z"/>
      <path class="cls-3" d="M171.84,330.29c11.63-4.51,22.29-10.91,31.51-19.36,4.58-4.19,8.68-8.86,12.37-13.85,3.94-5.33,7.13-11.44,12.25-15.78,5.1-4.34,11.73-6.3,17.82-8.8,5.66-2.32,10.84-5.13,15.65-8.94,10.05-7.97,17.32-18.87,23.14-30.17,2.65-5.14-5.12-9.7-7.77-4.54-5.63,10.94-12.59,21.72-22.69,29.06-9.61,6.99-21.98,8.6-31.29,16.03-9.21,7.35-14.18,18.95-22.41,27.33-8.74,8.89-19.34,15.84-30.96,20.35-5.34,2.07-3.02,10.78,2.39,8.68h0Z"/>
      <path class="cls-3" d="M321.33,211.22c11.66-2.47,23.08-5.44,32.32-13.35,4.41-3.77-1.98-10.11-6.36-6.36-7.92,6.78-18.42,8.93-28.35,11.04-5.66,1.2-3.27,9.88,2.39,8.68h0Z"/>
      <path class="cls-3" d="M356.63,197.57c4.1-.04,8.17-.65,12.09-1.87-1.69-2.2-3.39-4.41-5.08-6.61-2.53,3.77-5.68,6.99-9.26,9.77l7.52,1.99c-.57-2.3-.99-4.59-1.19-6.95l-4.5,4.5c.84-.06,1.69-.16,2.53-.15l-2.27-.61.32.15-2.07-2.69c-.02-.66-.05-.71-.09-.16-.04.37-.08.75-.12,1.12-.08.75-.17,1.5-.25,2.25h9c-.11.64-.49,1.07-1.15,1.31,2.28-.85,3.83-3.04,3.14-5.54-.6-2.19-3.25-4-5.54-3.14-3.31,1.23-5.38,3.76-5.46,7.37-.05,2.43,2.11,4.5,4.5,4.5,2.66,0,4.23-2.07,4.5-4.5.25-2.22.89-4.62-.32-6.68-1.46-2.49-4.23-2.41-6.74-2.23-2.26.16-4.72,1.94-4.5,4.5.27,3.15.75,6.27,1.51,9.34.9,3.61,5,3.95,7.52,1.99,4.19-3.26,7.7-7.19,10.66-11.6,2.19-3.26-1.44-7.75-5.08-6.61-3.2,1-6.35,1.52-9.7,1.55-5.79.06-5.8,9.06,0,9h0Z"/>
      <path class="cls-3" d="M345.69,186.52c5.84-1.08,11.69-1.25,17.6-.71s5.73-8.48,0-9c-6.73-.62-13.35-.2-19.99,1.03-5.69,1.06-3.28,9.73,2.39,8.68h0Z"/>
      <path class="cls-3" d="M369.18,185.36h5.7c2.35,0,4.61-2.07,4.5-4.5s-1.98-4.5-4.5-4.5h-.99c-2.35,0-4.61,2.07-4.5,4.5s1.98,4.5,4.5,4.5h.99c2.35,0,4.61-2.07,4.5-4.5s-1.98-4.5-4.5-4.5h-5.7c-2.35,0-4.61,2.07-4.5,4.5s1.98,4.5,4.5,4.5h0Z"/>
      <path class="cls-3" d="M327.58,133.87c6.7-.9,13.08-.34,19.5,1.82,5.5,1.85,7.86-6.84,2.39-8.68-7.09-2.38-14.48-3.13-21.89-2.14-5.66.76-5.73,9.77,0,9h0Z"/>
      <path class="cls-2" d="M235.3,90.32c1.41,3.42,3.28,6.57,5.69,9.39,2.6,3.05,5.92,5.25,8.81,8s5.45,5.98,8.57,8.63,6.34,4.9,9.64,7.17c4,2.75,8.07,5.4,12.19,7.96,1.47.91,2.99-1.14,1.82-2.36-2.86-2.96-5.73-5.93-8.59-8.89-2.73-2.83-5.6-5.6-7.96-8.75-2.11-2.81-3.85-5.9-6.25-8.49-2.59-2.81-6.04-4.4-9.18-6.49-3.75-2.5-7.18-5.43-10.6-8.36-.95-.81-2.57-.31-2.56,1.06.06,7.71,7.54,12.68,12.81,17.14,3.36,2.84,6.71,5.7,10.01,8.62,1.68,1.49,3.34,2.99,4.98,4.51.34.31.68.71,1.05.98.48.36.89.4,1.47.53.95.23,1.82.67,2.57,1.3l1.46-2.51c-3.01-.97-4.89-3.67-6.43-6.26-1.72-2.88-3.37-5.69-5.68-8.16-4.3-4.62-9.78-7.94-15.14-11.16-1.2-.72-3,.81-2.05,2.05,4.08,5.34,8.7,10.19,13.88,14.45,1.03.85,3.08.09,2.51-1.46-1.4-3.76-2.99-7.36-6.63-9.43-1.83-1.04-3.67-1.97-5.33-3.29s-3.13-2.86-4.43-4.53l-2.12,2.12c3.1,3.86,6.47,7.52,9.89,11.09,3.05,3.19,6.36,6.08,10.5,7.75,1.51.61,2.35-1.5,1.46-2.51-1.1-1.24-2.34-2.31-3.71-3.24-1.6-1.09-3.1,1.51-1.51,2.59,1.16.79,2.18,1.72,3.11,2.77l1.46-2.51c-3.89-1.56-6.93-4.58-9.75-7.58-3.21-3.4-6.39-6.84-9.32-10.49-1.21-1.51-3.29.62-2.12,2.12,2.39,3.07,5.41,5.63,8.84,7.47,1.73.93,3.3,1.76,4.43,3.43,1.04,1.54,1.71,3.28,2.36,5.02l2.51-1.46c-4.98-4.09-9.5-8.72-13.41-13.84l-2.05,2.05c5.49,3.3,11.11,6.69,15.34,11.59,4.16,4.83,5.97,12.15,12.63,14.3,1.38.44,2.62-1.54,1.46-2.51-.74-.62-1.49-1.14-2.38-1.53-.7-.31-1.58-.4-2.19-.79-.82-.52-1.57-1.46-2.29-2.12-.83-.75-1.66-1.5-2.5-2.25-3.11-2.77-6.27-5.48-9.44-8.17-2.9-2.46-5.95-4.81-8.66-7.48-2.37-2.34-4.53-5.15-4.55-8.62l-2.56,1.06c2.97,2.54,5.95,5.08,9.12,7.38,1.56,1.13,3.17,2.18,4.82,3.16s3.39,1.95,4.83,3.29c2.6,2.43,4.35,5.56,6.42,8.41,2.27,3.12,4.95,5.87,7.62,8.64,3.26,3.37,6.51,6.74,9.77,10.11l1.82-2.36c-6.76-4.2-13.62-8.51-19.83-13.5-3.06-2.46-5.66-5.27-8.34-8.13s-5.84-4.96-8.58-7.66c-2.9-2.86-5.22-6.3-6.77-10.06-.73-1.76-3.63-.99-2.89.8h0Z"/>
      <path class="cls-2" d="M177.09,144.86c-1.73-4.01-3.97-7.71-6.65-11.15-.97-1.25-2.84.13-2.51,1.46l1.51,6.02c.34,1.34,2.68,1.51,2.89,0,.32-2.34.29-4.58-.16-6.9l-2.2,1.69c15.18,8.13,30.35,16.28,45.14,25.11l1.51-2.59c-7.36-3.64-15.19-6.15-23.04-8.5-3.95-1.18-7.9-2.33-11.83-3.6-.87-.28-1.74-.57-2.6-.86-.98-.34-1.35-.5-1.47-1.53-.28-2.24-.4-4.51-.59-6.76-.17-1.91-2.88-1.95-3,0-.03.48-.06.96-.09,1.44l.74-1.3.18.08c-1.48-1.2-3.43.66-2.12,2.12,1.24,1.39,2.31,2.93,3.64,4.24s2.98,2.24,4.75,2.98c4.14,1.74,8.3,3.4,12.45,5.1,1.64.67,2.5-1.86,1.16-2.74-5.36-3.51-10.83-6.83-16.41-9.97-1.42-.8-3.21,1.28-1.82,2.36,6.62,5.14,13.93,9.2,21.81,12.08,1.82.66,2.6-2.23.8-2.89-7.35-2.69-14.3-6.51-20.48-11.31l-1.82,2.36c5.58,3.14,11.05,6.46,16.41,9.97l1.16-2.74c-3.9-1.59-7.8-3.18-11.69-4.78-1.69-.7-3.19-1.48-4.47-2.81-1.2-1.25-2.21-2.67-3.36-3.96l-2.12,2.12c.82.66,1.79,1.02,2.83.68,1.45-.47,1.37-1.72,1.45-3.02h-3c.21,2.36.36,4.74.63,7.1.21,1.89,1.06,3.12,2.87,3.81,4.09,1.56,8.38,2.7,12.57,3.95,8.48,2.52,17,5.05,24.95,8.98,1.72.85,3.19-1.59,1.51-2.59-14.78-8.83-29.96-16.98-45.14-25.11-1.21-.65-2.45.41-2.2,1.69.34,1.74.41,3.54.16,5.31h2.89l-1.51-6.02-2.51,1.46c2.51,3.23,4.57,6.79,6.18,10.55.76,1.77,3.35.24,2.59-1.51h0Z"/>
    </g>
  </g>
  <g id="Layer_4" data-name="Layer 4">
    <path class="cls-1" d="M92.58,152.74l-46.56,73.76c18.74,17.21,40.6,35.34,65.78,53.23,16.72,11.87,32.98,22.28,48.45,31.39,2.62,5.23,5.23,10.46,7.85,15.69l26.74,100.57c18-8.07,31.91-16.17,41.33-22.1,15.18-9.57,27.46-19.32,51.4-38.45,13.85-11.06,25.13-20.38,32.83-26.81-2.32.33-6.33.5-10.2-1.57-5.99-3.2-7.6-9.2-7.85-10.2-3.81-10.95-7.5-24.9-9.15-41.33-2.79-27.68,1.38-50.71,5.49-65.91-31.3-11.6-62.6-23.19-93.9-34.79l-21.58-8.11-34.4-10.2-56.24-15.17Z"/>
    <path class="cls-1" d="M96.9,152.74l3.14-2.48,40.02,4.32c21.91,5.35,45.31,12.03,69.84,20.4,36.52,12.46,69,26.45,97.3,40.41-3.87,14.72-7.77,36.31-6.28,62.38,1.27,22.23,6.05,40.56,10.59,53.75.51.74,1.06,1.29,1.57,1.7,3.55,2.87,8.45,1.69,9.42,1.44-1.57,1.87-3.14,3.74-4.72,5.61"/>
    <path class="cls-1" d="M129.72,152.74l17.26-13.08c7.37,1.74,16.66,4.11,27.32,7.26,18.45,5.45,34.56,11.34,48.01,16.8,15.71,6.38,34.01,14.73,53.88,25.63,14.47,5.93,28.95,11.86,43.42,17.79-4.24,18.24-7.91,43.7-5.23,73.76,1.49,16.66,4.62,31.27,8.11,43.42.06.19,1.24,3.79,4.97,4.71,2.46.61,5.08-.2,6.8-2.09,6.62-18.31,9.81-33.54,11.51-43.94,2.36-14.49,2.26-22.43,4.71-44.47,1.83-16.46,3.85-29.75,5.23-38.19-1.22-3.49-2.44-6.97-3.66-10.46-5.32-4.05-13.24-10.26-22.49-18.31-11.88-10.34-14.2-13.46-21.45-19.88-20.06-17.76-28.45-16.94-47.08-31.91-7.34-5.9-17.47-15.22-27.73-29.29-28.77,16.39-57.54,32.78-86.32,49.17"/>
    <path class="cls-1" d="M235.39,169.29c-40.35-24.23-65.79-39.47-68.07-36.29-1.02,1.41.36,6.32,6.87,13.14"/>
    <path class="cls-1" d="M289.83,138c-10.65-11.2-17.14-20.08-23.05-26.38-7.56-8.07-13.9-14.91-24.72-20.79-1.74-.95-5.3-4.08-6.47-3.14-1.13.9-1.1,3.27-.88,4.9"/>
    <path class="cls-1" d="M334.26,326.94c-1.5,1.5-12.36,11.57-13.86,13.08"/>
    <path class="cls-1" d="M114.04,151.77c17.91-13.77,40.81-30.78,68-49.51,34.76-23.95,75.15-49.76,75.72-48.91.46.69-24.89,19.16-140.33,98.61"/>
    <path class="cls-1" d="M257.76,53.35c7.72,9.21,22.9,23.84,39.1,42.9,52.71,61.99,60.6,69.38,72.45,90.5,16.02,28.53,14.18,37.41,19.47,49.97,3.13,7.42,5.97,10.23,10.35,16.99,9.85,15.21,9.67,21.01,17.52,35.83,4.15,7.83,10.8,18.67,21.45,30.6,0,0,0,0,0,0-1.58,6.32-10.94,9.01-13.08,9.68-31.14,9.76-57.66,30.74-87.62,43.68-37.6,16.24-30.83,15.7-57.02,26.42-35.42,14.5-65.55,22.75-85.53,27.46"/>
    <path class="cls-1" d="M287.18,83.82c7.8-2.84,12.65-5.43,15.69-7.32.66-.41,3.82-2.4,8.37-4.18.47-.19,5.04-1.96,5.23-1.57.22.44-4.85,3.67-27.2,15.56"/>
    <path class="cls-1" d="M437.06,318.95c-4.91-10.07-8.64-21.6-10.99-26.87-17.86-40.1-18.09-50.22-25.7-57.67-1.75-1.72-7.88-7.2-7.26-13.14.14-1.37.64-2.66.2-4.71-.63-2.94-2.28-3.29-3.92-7.06-.94-2.15-.52-2.3-1.77-5.69-.28-.76-.95-2.51-2.35-5.3-3.96-7.85-5.73-7.97-6.87-12.36-.83-3.22-.05-3.83-1.18-6.28-1.66-3.62-4.78-5.38-5.89-6.08-6.45-4.1-5.63-11.2-16.48-32.96-4.7-9.42-7.17-12.74-8.24-14.12-2.42-3.12-3.85-4.35-5.89-7.65-3.38-5.49-4.51-10.41-4.9-11.97-1.46-5.71-5.91-16.22-18.83-37.27"/>
  </g>
</svg>